G04 #@! TF.GenerationSoftware,KiCad,Pcbnew,8.0.0*
G04 #@! TF.CreationDate,2024-03-08T06:59:15+01:00*
G04 #@! TF.ProjectId,JoyMega3,4a6f794d-6567-4613-932e-6b696361645f,rev?*
G04 #@! TF.SameCoordinates,Original*
G04 #@! TF.FileFunction,Legend,Bot*
G04 #@! TF.FilePolarity,Positive*
%FSLAX46Y46*%
G04 Gerber Fmt 4.6, Leading zero omitted, Abs format (unit mm)*
G04 Created by KiCad (PCBNEW 8.0.0) date 2024-03-08 06:59:15*
%MOMM*%
%LPD*%
G01*
G04 APERTURE LIST*
%ADD10C,0.100000*%
%ADD11C,0.150000*%
%ADD12C,0.120000*%
G04 APERTURE END LIST*
D10*
X118490419Y-79297884D02*
X117490419Y-79297884D01*
X117490419Y-79297884D02*
X118204704Y-79631217D01*
X118204704Y-79631217D02*
X117490419Y-79964550D01*
X117490419Y-79964550D02*
X118490419Y-79964550D01*
X118442800Y-80393122D02*
X118490419Y-80535979D01*
X118490419Y-80535979D02*
X118490419Y-80774074D01*
X118490419Y-80774074D02*
X118442800Y-80869312D01*
X118442800Y-80869312D02*
X118395180Y-80916931D01*
X118395180Y-80916931D02*
X118299942Y-80964550D01*
X118299942Y-80964550D02*
X118204704Y-80964550D01*
X118204704Y-80964550D02*
X118109466Y-80916931D01*
X118109466Y-80916931D02*
X118061847Y-80869312D01*
X118061847Y-80869312D02*
X118014228Y-80774074D01*
X118014228Y-80774074D02*
X117966609Y-80583598D01*
X117966609Y-80583598D02*
X117918990Y-80488360D01*
X117918990Y-80488360D02*
X117871371Y-80440741D01*
X117871371Y-80440741D02*
X117776133Y-80393122D01*
X117776133Y-80393122D02*
X117680895Y-80393122D01*
X117680895Y-80393122D02*
X117585657Y-80440741D01*
X117585657Y-80440741D02*
X117538038Y-80488360D01*
X117538038Y-80488360D02*
X117490419Y-80583598D01*
X117490419Y-80583598D02*
X117490419Y-80821693D01*
X117490419Y-80821693D02*
X117538038Y-80964550D01*
X117490419Y-81297884D02*
X118490419Y-81964550D01*
X117490419Y-81964550D02*
X118490419Y-81297884D01*
X126127580Y-81196115D02*
X127127580Y-81196115D01*
X127127580Y-81196115D02*
X126413295Y-80862782D01*
X126413295Y-80862782D02*
X127127580Y-80529449D01*
X127127580Y-80529449D02*
X126127580Y-80529449D01*
X126127580Y-80053258D02*
X127127580Y-80053258D01*
X127127580Y-80053258D02*
X127127580Y-79815163D01*
X127127580Y-79815163D02*
X127079961Y-79672306D01*
X127079961Y-79672306D02*
X126984723Y-79577068D01*
X126984723Y-79577068D02*
X126889485Y-79529449D01*
X126889485Y-79529449D02*
X126699009Y-79481830D01*
X126699009Y-79481830D02*
X126556152Y-79481830D01*
X126556152Y-79481830D02*
X126365676Y-79529449D01*
X126365676Y-79529449D02*
X126270438Y-79577068D01*
X126270438Y-79577068D02*
X126175200Y-79672306D01*
X126175200Y-79672306D02*
X126127580Y-79815163D01*
X126127580Y-79815163D02*
X126127580Y-80053258D01*
D11*
X122454819Y-83123810D02*
X121454819Y-83123810D01*
X122359580Y-84171428D02*
X122407200Y-84123809D01*
X122407200Y-84123809D02*
X122454819Y-83980952D01*
X122454819Y-83980952D02*
X122454819Y-83885714D01*
X122454819Y-83885714D02*
X122407200Y-83742857D01*
X122407200Y-83742857D02*
X122311961Y-83647619D01*
X122311961Y-83647619D02*
X122216723Y-83600000D01*
X122216723Y-83600000D02*
X122026247Y-83552381D01*
X122026247Y-83552381D02*
X121883390Y-83552381D01*
X121883390Y-83552381D02*
X121692914Y-83600000D01*
X121692914Y-83600000D02*
X121597676Y-83647619D01*
X121597676Y-83647619D02*
X121502438Y-83742857D01*
X121502438Y-83742857D02*
X121454819Y-83885714D01*
X121454819Y-83885714D02*
X121454819Y-83980952D01*
X121454819Y-83980952D02*
X121502438Y-84123809D01*
X121502438Y-84123809D02*
X121550057Y-84171428D01*
X122454819Y-85123809D02*
X122454819Y-84552381D01*
X122454819Y-84838095D02*
X121454819Y-84838095D01*
X121454819Y-84838095D02*
X121597676Y-84742857D01*
X121597676Y-84742857D02*
X121692914Y-84647619D01*
X121692914Y-84647619D02*
X121740533Y-84552381D01*
D12*
X120310000Y-79800000D02*
X120310000Y-80600000D01*
X120310000Y-81400000D02*
X120310000Y-80600000D01*
X123530000Y-81400000D02*
X123530000Y-79600000D01*
X120360000Y-79300000D02*
X120030000Y-79540000D01*
X120030000Y-79060000D01*
X120360000Y-79300000D01*
G36*
X120360000Y-79300000D02*
G01*
X120030000Y-79540000D01*
X120030000Y-79060000D01*
X120360000Y-79300000D01*
G37*
M02*
