G04 #@! TF.GenerationSoftware,KiCad,Pcbnew,8.0.0*
G04 #@! TF.CreationDate,2024-03-08T06:59:15+01:00*
G04 #@! TF.ProjectId,JoyMega3,4a6f794d-6567-4613-932e-6b696361645f,rev?*
G04 #@! TF.SameCoordinates,Original*
G04 #@! TF.FileFunction,Legend,Top*
G04 #@! TF.FilePolarity,Positive*
%FSLAX46Y46*%
G04 Gerber Fmt 4.6, Leading zero omitted, Abs format (unit mm)*
G04 Created by KiCad (PCBNEW 8.0.0) date 2024-03-08 06:59:15*
%MOMM*%
%LPD*%
G01*
G04 APERTURE LIST*
%ADD10C,0.150000*%
%ADD11C,0.120000*%
G04 APERTURE END LIST*
D10*
X120933333Y-73359580D02*
X120885714Y-73407200D01*
X120885714Y-73407200D02*
X120742857Y-73454819D01*
X120742857Y-73454819D02*
X120647619Y-73454819D01*
X120647619Y-73454819D02*
X120504762Y-73407200D01*
X120504762Y-73407200D02*
X120409524Y-73311961D01*
X120409524Y-73311961D02*
X120361905Y-73216723D01*
X120361905Y-73216723D02*
X120314286Y-73026247D01*
X120314286Y-73026247D02*
X120314286Y-72883390D01*
X120314286Y-72883390D02*
X120361905Y-72692914D01*
X120361905Y-72692914D02*
X120409524Y-72597676D01*
X120409524Y-72597676D02*
X120504762Y-72502438D01*
X120504762Y-72502438D02*
X120647619Y-72454819D01*
X120647619Y-72454819D02*
X120742857Y-72454819D01*
X120742857Y-72454819D02*
X120885714Y-72502438D01*
X120885714Y-72502438D02*
X120933333Y-72550057D01*
X121885714Y-73454819D02*
X121314286Y-73454819D01*
X121600000Y-73454819D02*
X121600000Y-72454819D01*
X121600000Y-72454819D02*
X121504762Y-72597676D01*
X121504762Y-72597676D02*
X121409524Y-72692914D01*
X121409524Y-72692914D02*
X121314286Y-72740533D01*
X114517319Y-71370000D02*
X115231604Y-71370000D01*
X115231604Y-71370000D02*
X115374461Y-71417619D01*
X115374461Y-71417619D02*
X115469700Y-71512857D01*
X115469700Y-71512857D02*
X115517319Y-71655714D01*
X115517319Y-71655714D02*
X115517319Y-71750952D01*
X115517319Y-70370000D02*
X115517319Y-70941428D01*
X115517319Y-70655714D02*
X114517319Y-70655714D01*
X114517319Y-70655714D02*
X114660176Y-70750952D01*
X114660176Y-70750952D02*
X114755414Y-70846190D01*
X114755414Y-70846190D02*
X114803033Y-70941428D01*
X120327505Y-83954819D02*
X120327505Y-82954819D01*
X120327505Y-82954819D02*
X120565600Y-82954819D01*
X120565600Y-82954819D02*
X120708457Y-83002438D01*
X120708457Y-83002438D02*
X120803695Y-83097676D01*
X120803695Y-83097676D02*
X120851314Y-83192914D01*
X120851314Y-83192914D02*
X120898933Y-83383390D01*
X120898933Y-83383390D02*
X120898933Y-83526247D01*
X120898933Y-83526247D02*
X120851314Y-83716723D01*
X120851314Y-83716723D02*
X120803695Y-83811961D01*
X120803695Y-83811961D02*
X120708457Y-83907200D01*
X120708457Y-83907200D02*
X120565600Y-83954819D01*
X120565600Y-83954819D02*
X120327505Y-83954819D01*
X121279886Y-83050057D02*
X121327505Y-83002438D01*
X121327505Y-83002438D02*
X121422743Y-82954819D01*
X121422743Y-82954819D02*
X121660838Y-82954819D01*
X121660838Y-82954819D02*
X121756076Y-83002438D01*
X121756076Y-83002438D02*
X121803695Y-83050057D01*
X121803695Y-83050057D02*
X121851314Y-83145295D01*
X121851314Y-83145295D02*
X121851314Y-83240533D01*
X121851314Y-83240533D02*
X121803695Y-83383390D01*
X121803695Y-83383390D02*
X121232267Y-83954819D01*
X121232267Y-83954819D02*
X121851314Y-83954819D01*
X124654819Y-81346894D02*
X123654819Y-81346894D01*
X123654819Y-81346894D02*
X123654819Y-81108799D01*
X123654819Y-81108799D02*
X123702438Y-80965942D01*
X123702438Y-80965942D02*
X123797676Y-80870704D01*
X123797676Y-80870704D02*
X123892914Y-80823085D01*
X123892914Y-80823085D02*
X124083390Y-80775466D01*
X124083390Y-80775466D02*
X124226247Y-80775466D01*
X124226247Y-80775466D02*
X124416723Y-80823085D01*
X124416723Y-80823085D02*
X124511961Y-80870704D01*
X124511961Y-80870704D02*
X124607200Y-80965942D01*
X124607200Y-80965942D02*
X124654819Y-81108799D01*
X124654819Y-81108799D02*
X124654819Y-81346894D01*
X124654819Y-79823085D02*
X124654819Y-80394513D01*
X124654819Y-80108799D02*
X123654819Y-80108799D01*
X123654819Y-80108799D02*
X123797676Y-80204037D01*
X123797676Y-80204037D02*
X123892914Y-80299275D01*
X123892914Y-80299275D02*
X123940533Y-80394513D01*
X129154819Y-90314666D02*
X129869104Y-90314666D01*
X129869104Y-90314666D02*
X130011961Y-90362285D01*
X130011961Y-90362285D02*
X130107200Y-90457523D01*
X130107200Y-90457523D02*
X130154819Y-90600380D01*
X130154819Y-90600380D02*
X130154819Y-90695618D01*
X129250057Y-89886094D02*
X129202438Y-89838475D01*
X129202438Y-89838475D02*
X129154819Y-89743237D01*
X129154819Y-89743237D02*
X129154819Y-89505142D01*
X129154819Y-89505142D02*
X129202438Y-89409904D01*
X129202438Y-89409904D02*
X129250057Y-89362285D01*
X129250057Y-89362285D02*
X129345295Y-89314666D01*
X129345295Y-89314666D02*
X129440533Y-89314666D01*
X129440533Y-89314666D02*
X129583390Y-89362285D01*
X129583390Y-89362285D02*
X130154819Y-89933713D01*
X130154819Y-89933713D02*
X130154819Y-89314666D01*
D11*
X124720000Y-74130000D02*
X124720000Y-76870000D01*
X117480000Y-76870000D02*
X124720000Y-76870000D01*
X117480000Y-74130000D02*
X124720000Y-74130000D01*
X117480000Y-74130000D02*
X117480000Y-76870000D01*
X113322500Y-87223333D02*
X117062500Y-87223333D01*
X115062500Y-87463333D02*
X117302500Y-87463333D01*
X117062500Y-73776667D02*
X113322500Y-73776667D01*
X117062500Y-87223333D02*
X117062500Y-73776667D01*
X117302500Y-87463333D02*
X117302500Y-83270000D01*
X119630000Y-85500000D02*
X120280000Y-85500000D01*
X120280000Y-84380000D02*
X120280000Y-86620000D01*
X120280000Y-86620000D02*
X124520000Y-86620000D01*
X123680000Y-86620000D02*
X123680000Y-84380000D01*
X123800000Y-86620000D02*
X123800000Y-84380000D01*
X123920000Y-86620000D02*
X123920000Y-84380000D01*
X124520000Y-84380000D02*
X120280000Y-84380000D01*
X124520000Y-86620000D02*
X124520000Y-84380000D01*
X125170000Y-85500000D02*
X124520000Y-85500000D01*
X125080000Y-77178800D02*
X125080000Y-81418800D01*
X125080000Y-81418800D02*
X127320000Y-81418800D01*
X126200000Y-76528800D02*
X126200000Y-77178800D01*
X126200000Y-82068800D02*
X126200000Y-81418800D01*
X127320000Y-77178800D02*
X125080000Y-77178800D01*
X127320000Y-77778800D02*
X125080000Y-77778800D01*
X127320000Y-77898800D02*
X125080000Y-77898800D01*
X127320000Y-78018800D02*
X125080000Y-78018800D01*
X127320000Y-81418800D02*
X127320000Y-77178800D01*
X131440000Y-73794667D02*
X127700000Y-73794667D01*
X129700000Y-87481333D02*
X127460000Y-87481333D01*
X127700000Y-87241333D02*
X131440000Y-87241333D01*
X127700000Y-73794667D02*
X127700000Y-87241333D01*
X127460000Y-87481333D02*
X127460000Y-83288000D01*
M02*
